<?xml version="1.0" encoding="UTF-8"?>
<svg width="512" height="512" viewBox="0 0 512 512"
     xmlns="http://www.w3.org/2000/svg"
     role="img" aria-labelledby="title">
  <title id="title">contenox</title>

  <rect width="512" height="512" rx="96" ry="96" fill="#0c1410"/>

  <!-- Routing lines -->
  <g stroke="#1f3828" stroke-width="3" fill="none" stroke-linecap="round" stroke-linejoin="round">
    <polyline points="138,168 200,168 200,220 275,220"/>
    <polyline points="275,168 275,220"/>
    <polyline points="275,168 338,168 338,220 390,220"/>
    <polyline points="108,256 175,256"/>
    <polyline points="175,256 175,220 200,220"/>
    <polyline points="175,256 175,290 240,290 240,256 310,256"/>
    <polyline points="310,256 310,220 338,220"/>
    <polyline points="310,256 370,256"/>
    <polyline points="155,330 240,330 240,290"/>
    <polyline points="240,330 310,330 310,290 370,290 370,256"/>
    <polyline points="155,330 155,290 175,290"/>
    <polyline points="200,220 240,220 240,256"/>
    <polyline points="338,220 370,220 370,256"/>
    <line x1="275" y1="220" x2="310" y2="220"/>
    <line x1="240" y1="290" x2="240" y2="330"/>
  </g>

  <!-- Top lane nodes -->
  <rect x="116" y="146" width="44" height="44" rx="10" fill="#1a2e22"/>
  <rect x="118" y="148" width="40" height="40" rx="9"  fill="#e8f0ec"/>
  <rect x="253" y="146" width="44" height="44" rx="10" fill="#10b981"/>
  <rect x="316" y="146" width="44" height="44" rx="10" fill="#1a2e22"/>
  <rect x="318" y="148" width="40" height="40" rx="9"  fill="#e8f0ec"/>

  <!-- Mid lane nodes -->
  <rect x="82"  y="228" width="50" height="50" rx="11" fill="#1a2e22"/>
  <rect x="84"  y="230" width="46" height="46" rx="10" fill="#f0f5f2"/>
  <rect x="150" y="228" width="50" height="50" rx="11" fill="#10b981"/>
  <rect x="214" y="228" width="50" height="50" rx="11" fill="#1a2e22"/>
  <rect x="216" y="230" width="46" height="46" rx="10" fill="#f0f5f2"/>
  <rect x="284" y="228" width="50" height="50" rx="11" fill="#10b981"/>
  <rect x="348" y="224" width="56" height="56" rx="12" fill="#10b981"/>
  <rect x="358" y="234" width="18" height="18" rx="5"  fill="#ffffff" opacity="0.15"/>

  <!-- Bottom lane nodes -->
  <rect x="128" y="308" width="44" height="44" rx="10" fill="#10b981"/>
  <rect x="214" y="308" width="44" height="44" rx="10" fill="#1a2e22"/>
  <rect x="216" y="310" width="40" height="40" rx="9"  fill="#c8dcd2"/>

</svg>
